<svg xmlns="http://www.w3.org/2000/svg" width="32" height="32" viewBox="0 0 32 32" aria-hidden="true">
  <rect x="4" y="6" width="24" height="20" rx="4" fill="#232f3e"/>
  <path fill="#fff" d="M10.2 14.1c.4-2 2-3.1 4.3-3.1 2.7 0 4.1 1.3 4.1 3.8v4.1c0 .8.1 1.5.3 2.1h-2.8c-.1-.3-.2-.7-.2-1.1-.8.9-1.9 1.3-3.2 1.3-2 0-3.3-1.2-3.3-3 0-1.9 1.4-3 4.1-3.2l2.3-.2v-.3c0-1-.5-1.5-1.5-1.5-.9 0-1.4.4-1.7 1.2zm5.6 2.5-1.6.1c-1.3.1-1.9.5-1.9 1.3s.5 1.2 1.3 1.2c1.2 0 2.2-.8 2.2-1.9z"/>
  <path fill="#ff9900" d="M8.7 22.8c4.5 2.4 9.5 2.4 14.1.1.5-.3.9.4.4.8-4.1 3.1-10.6 3.1-14.8 0-.5-.4-.2-1.2.3-.9"/>
  <path fill="#ff9900" d="M22.2 22.1c.8-.1 2.3-.2 2.6.2.3.4-.3 1.8-.7 2.5-.2.4-.6.2-.5-.2.1-.5.4-1.4.2-1.6-.2-.2-1.2-.1-1.7-.1-.4 0-.4-.6.1-.8"/>
</svg>
