<svg xmlns="http://www.w3.org/2000/svg" width="32" height="32" viewBox="0 0 32 32" aria-hidden="true">
  <rect x="5" y="7" width="22" height="20" rx="4" fill="#2874f0"/>
  <path fill="#ffe500" d="M10 12.5h12a1 1 0 0 1 1 1v9.2a2.3 2.3 0 0 1-2.3 2.3h-9.4A2.3 2.3 0 0 1 9 22.7v-9.2a1 1 0 0 1 1-1"/>
  <path fill="#2874f0" d="M13.2 16h6.7l-.5 2h-3.7l-.3 1.1h3.4l-.5 1.9h-3.4l-.8 3h-2.4z"/>
  <path fill="#ffe500" d="M12.4 12.7c.4-2.9 2.1-4.7 4.4-4.7 2.1 0 3.5 1.5 3.5 3.9h-2.2c0-1.1-.5-1.8-1.4-1.8-1 0-1.8 1-2.1 2.8z"/>
</svg>
