<svg xmlns="http://www.w3.org/2000/svg" width="32" height="32" viewBox="0 0 32 32" aria-hidden="true">
  <rect x="5" y="7" width="22" height="20" rx="5" fill="#9f2089"/>
  <path fill="#fff" d="M11 12.2c0-2.7 2.1-4.7 5-4.7s5 2 5 4.7h-2.5c0-1.3-1-2.3-2.5-2.3s-2.5 1-2.5 2.3z"/>
  <path fill="#ffd166" d="M10.5 14.5h11a1 1 0 0 1 1 1v6.2a2.8 2.8 0 0 1-2.8 2.8h-7.4a2.8 2.8 0 0 1-2.8-2.8v-6.2a1 1 0 0 1 1-1"/>
  <path fill="#9f2089" d="M13 17.3a.8.8 0 0 1 1 .4c.4.7 1.1 1.2 2 1.2s1.6-.5 2-1.2a.8.8 0 1 1 1.4.8A3.8 3.8 0 0 1 16 20.7a3.8 3.8 0 0 1-3.4-2.2.8.8 0 0 1 .4-1.2"/>
</svg>
