<svg xmlns="http://www.w3.org/2000/svg" viewBox="0 0 64 64" aria-hidden="true">
  <circle cx="32" cy="32" r="32" fill="#e60023"/>
  <path fill="#fff" d="M31.4 12.8c-10.8 0-18 7.5-18 15.8 0 5.1 2.8 8 6 8 1 0 1.6-.5 1.9-1.5.2-.7.6-2.2.8-2.9.3-.9.1-1.3-.5-2-1.1-1.3-1.8-2.9-1.8-5.2 0-7 5.2-12.1 12.9-12.1 7 0 11.9 4.3 11.9 11.1 0 7.7-3.9 13-8.9 13-2.8 0-4.9-2.3-4.2-5.2.8-3.4 2.3-7 2.3-9.4 0-2.2-1.2-4-3.6-4-2.8 0-5.1 2.9-5.1 6.8 0 2.5.8 4.2.8 4.2s-2.8 11.8-3.3 14c-.6 2.6-.4 6.2-.1 8.6.1.5.7.6 1 .2 1.3-1.8 3.5-5 4.2-7.5.4-1.4 1.9-7.2 1.9-7.2 1 1.8 3.8 3.3 6.8 3.3 8.9 0 15.3-8.2 15.3-18.4 0-9.8-8-17.6-20.3-17.6Z"/>
</svg>
